<?xml version="1.0" encoding="UTF-8"?>
<!DOCTYPE svg PUBLIC "-//W3C//DTD SVG 1.1//EN" "http://www.w3.org/Graphics/SVG/1.1/DTD/svg11.dtd">
<svg xmlns="http://www.w3.org/2000/svg" version="1.1" width="500px" height="500px" style="shape-rendering:geometricPrecision; text-rendering:geometricPrecision; image-rendering:optimizeQuality; fill-rule:evenodd; clip-rule:evenodd" xmlns:xlink="http://www.w3.org/1999/xlink">
<g><path style="opacity:0.391" fill="#e6baac" d="M 301.5,66.5 C 278.343,65.1669 254.843,64.5002 231,64.5C 207.5,64.6667 184,64.8333 160.5,65C 161.056,65.3826 161.389,65.8826 161.5,66.5C 159.804,66.3146 158.471,65.4813 157.5,64C 205.832,63.5 254.166,63.3333 302.5,63.5C 302.737,64.791 302.404,65.791 301.5,66.5 Z"/></g>
<g><path style="opacity:0.004" fill="#f6f1ed" d="M 162.5,67.5 C 163.5,67.8333 164.167,68.5 164.5,69.5C 163.167,69.5 162.5,68.8333 162.5,67.5 Z"/></g>
<g><path style="opacity:0.694" fill="#f1c3b6" d="M 164.5,69.5 C 169.167,72.1667 172.833,75.8333 175.5,80.5C 171.5,77.1667 167.833,73.5 164.5,69.5 Z"/></g>
<g><path style="opacity:1" fill="#e54825" d="M 301.5,66.5 C 301.768,68.099 301.434,69.4324 300.5,70.5C 298.928,73.2154 297.928,76.2154 297.5,79.5C 297.008,81.8185 296.008,83.8185 294.5,85.5C 293.5,85.5 292.5,85.5 291.5,85.5C 291.5,86.5 291.5,87.5 291.5,88.5C 290.448,88.3505 289.448,88.5172 288.5,89C 289.38,90.3561 289.714,91.8561 289.5,93.5C 288.094,93.9731 287.427,94.9731 287.5,96.5C 287.167,97.5 286.5,98.1667 285.5,98.5C 284.094,98.9731 283.427,99.9731 283.5,101.5C 281.833,103.833 279.833,105.833 277.5,107.5C 276.504,107.586 275.671,107.252 275,106.5C 274.517,107.448 274.351,108.448 274.5,109.5C 273.448,109.351 272.448,109.517 271.5,110C 271.833,110.333 272.167,110.667 272.5,111C 270.671,111.273 269.171,112.107 268,113.5C 264.89,112.327 264.723,112.827 267.5,115C 266.5,115.333 265.5,115.667 264.5,116C 265.252,116.671 265.586,117.504 265.5,118.5C 264.833,119.833 263.833,120.833 262.5,121.5C 260.973,121.427 259.973,122.094 259.5,123.5C 254.731,122.622 252.731,124.289 253.5,128.5C 251.973,128.427 250.973,129.094 250.5,130.5C 250.5,131.167 250.167,131.5 249.5,131.5C 247.973,131.427 246.973,132.094 246.5,133.5C 245.127,133.343 243.793,133.51 242.5,134C 243.598,134.77 243.598,135.603 242.5,136.5C 240.011,135.255 238.678,136.255 238.5,139.5C 238.5,140.167 238.167,140.5 237.5,140.5C 235.973,140.427 234.973,141.094 234.5,142.5C 232.011,141.255 230.678,142.255 230.5,145.5C 225.928,144.486 223.262,146.486 222.5,151.5C 222.5,152.167 222.167,152.5 221.5,152.5C 220.127,152.343 218.793,152.51 217.5,153C 218.598,153.77 218.598,154.603 217.5,155.5C 216.5,157.167 215.167,158.5 213.5,159.5C 211.973,159.427 210.973,160.094 210.5,161.5C 209.833,162.833 208.833,163.833 207.5,164.5C 205.856,164.714 204.356,164.38 203,163.5C 202.828,156.654 202.328,149.987 201.5,143.5C 201.844,137.902 201.178,132.568 199.5,127.5C 199.706,124.505 199.04,121.838 197.5,119.5C 197.741,117.102 197.074,115.102 195.5,113.5C 194.463,112.07 193.796,110.403 193.5,108.5C 193.598,106.447 192.931,104.78 191.5,103.5C 191.25,101.326 190.25,99.6594 188.5,98.5C 187.662,98.1583 187.328,97.4916 187.5,96.5C 187.573,94.9731 186.906,93.9731 185.5,93.5C 185.573,91.9731 184.906,90.9731 183.5,90.5C 183.573,88.9731 182.906,87.9731 181.5,87.5C 180.833,87.5 180.5,87.1667 180.5,86.5C 180.573,84.9731 179.906,83.9731 178.5,83.5C 177.167,82.8333 176.167,81.8333 175.5,80.5C 172.833,75.8333 169.167,72.1667 164.5,69.5C 164.167,68.5 163.5,67.8333 162.5,67.5C 161.833,67.5 161.5,67.1667 161.5,66.5C 161.389,65.8826 161.056,65.3826 160.5,65C 184,64.8333 207.5,64.6667 231,64.5C 254.843,64.5002 278.343,65.1669 301.5,66.5 Z"/></g>
<g><path style="opacity:0.008" fill="#f3dcd4" d="M 300.5,70.5 C 300.472,73.9164 299.472,76.9164 297.5,79.5C 297.928,76.2154 298.928,73.2154 300.5,70.5 Z"/></g>
<g><path style="opacity:0.012" fill="#f5d6cd" d="M 178.5,83.5 C 179.906,83.9731 180.573,84.9731 180.5,86.5C 179.094,86.0269 178.427,85.0269 178.5,83.5 Z"/></g>
<g><path style="opacity:0.024" fill="#f5dad0" d="M 181.5,87.5 C 182.906,87.9731 183.573,88.9731 183.5,90.5C 182.094,90.0269 181.427,89.0269 181.5,87.5 Z"/></g>
<g><path style="opacity:1" fill="#ef8263" d="M 294.5,85.5 C 293.617,88.7043 291.95,91.3709 289.5,93.5C 289.714,91.8561 289.38,90.3561 288.5,89C 289.448,88.5172 290.448,88.3505 291.5,88.5C 291.5,87.5 291.5,86.5 291.5,85.5C 292.5,85.5 293.5,85.5 294.5,85.5 Z"/></g>
<g><path style="opacity:0.004" fill="#f3e3d9" d="M 183.5,90.5 C 184.906,90.9731 185.573,91.9731 185.5,93.5C 184.094,93.0269 183.427,92.0269 183.5,90.5 Z"/></g>
<g><path style="opacity:0.008" fill="#f6e0d5" d="M 185.5,93.5 C 186.906,93.9731 187.573,94.9731 187.5,96.5C 186.094,96.0269 185.427,95.0269 185.5,93.5 Z"/></g>
<g><path style="opacity:0.008" fill="#f5dfd7" d="M 289.5,93.5 C 289.573,95.0269 288.906,96.0269 287.5,96.5C 287.427,94.9731 288.094,93.9731 289.5,93.5 Z"/></g>
<g><path style="opacity:0.012" fill="#f5d9cf" d="M 285.5,98.5 C 285.573,100.027 284.906,101.027 283.5,101.5C 283.427,99.9731 284.094,98.9731 285.5,98.5 Z"/></g>
<g><path style="opacity:0.149" fill="#f3d5ca" d="M 188.5,98.5 C 190.25,99.6594 191.25,101.326 191.5,103.5C 189.75,102.341 188.75,100.674 188.5,98.5 Z"/></g>
<g><path style="opacity:0.118" fill="#f2d3c9" d="M 191.5,103.5 C 192.931,104.78 193.598,106.447 193.5,108.5C 192.069,107.22 191.402,105.553 191.5,103.5 Z"/></g>
<g><path style="opacity:0.012" fill="#e8f4ea" d="M 293.5,108.5 C 294.833,105.833 294.167,105.167 291.5,106.5C 291.787,104.879 292.787,103.879 294.5,103.5C 294.833,104.333 295.167,105.167 295.5,106C 295.316,107.376 294.649,108.209 293.5,108.5 Z"/></g>
<g><path style="opacity:0.004" fill="#fcfefa" d="M 278.5,108.5 C 279.833,109.167 279.833,109.167 278.5,108.5 Z"/></g>
<g><path style="opacity:0.004" fill="#fafefa" d="M 276.5,110.5 C 277.833,111.167 277.833,111.167 276.5,110.5 Z"/></g>
<g><path style="opacity:1" fill="#ed7756" d="M 277.5,107.5 C 274.126,111.876 270.126,115.542 265.5,118.5C 265.586,117.504 265.252,116.671 264.5,116C 265.5,115.667 266.5,115.333 267.5,115C 264.723,112.827 264.89,112.327 268,113.5C 269.171,112.107 270.671,111.273 272.5,111C 272.167,110.667 271.833,110.333 271.5,110C 272.448,109.517 273.448,109.351 274.5,109.5C 274.351,108.448 274.517,107.448 275,106.5C 275.671,107.252 276.504,107.586 277.5,107.5 Z"/></g>
<g><path style="opacity:0.396" fill="#edc8ba" d="M 195.5,113.5 C 197.074,115.102 197.741,117.102 197.5,119.5C 196.262,117.786 195.595,115.786 195.5,113.5 Z"/></g>
<g><path style="opacity:1" fill="#9cd29d" d="M 292.5,111.5 C 291.247,115.611 289.247,119.277 286.5,122.5C 286.774,117.789 288.774,114.122 292.5,111.5 Z"/></g>
<g><path style="opacity:0.031" fill="#e4f4e6" d="M 273.5,120.5 C 272.564,121.974 271.23,122.974 269.5,123.5C 270.035,121.554 271.368,120.554 273.5,120.5 Z"/></g>
<g><path style="opacity:0.008" fill="#f3dbd4" d="M 197.5,119.5 C 199.04,121.838 199.706,124.505 199.5,127.5C 198.232,125.095 197.565,122.428 197.5,119.5 Z"/></g>
<g><path style="opacity:0.004" fill="#f9ede8" d="M 262.5,121.5 C 262.611,122.117 262.944,122.617 263.5,123C 262.207,123.49 260.873,123.657 259.5,123.5C 259.973,122.094 260.973,121.427 262.5,121.5 Z"/></g>
<g><path style="opacity:0.008" fill="#ebf6ed" d="M 286.5,122.5 C 286.771,124.38 286.104,125.713 284.5,126.5C 284.66,124.847 285.326,123.514 286.5,122.5 Z"/></g>
<g><path style="opacity:1" fill="#ed7958" d="M 259.5,123.5 C 257.909,125.633 255.909,127.299 253.5,128.5C 252.731,124.289 254.731,122.622 259.5,123.5 Z"/></g>
<g><path style="opacity:0.063" fill="#d9efdb" d="M 268.5,124.5 C 267.564,125.974 266.23,126.974 264.5,127.5C 265.035,125.554 266.368,124.554 268.5,124.5 Z"/></g>
<g><path style="opacity:0.035" fill="#e2f4e5" d="M 284.5,126.5 C 284.573,128.027 283.906,129.027 282.5,129.5C 282.427,127.973 283.094,126.973 284.5,126.5 Z"/></g>
<g><path style="opacity:0.004" fill="#f8e3dd" d="M 253.5,128.5 C 253.027,129.906 252.027,130.573 250.5,130.5C 250.973,129.094 251.973,128.427 253.5,128.5 Z"/></g>
<g><path style="opacity:1" fill="#3dac4b" d="M 293.5,108.5 C 293.443,109.609 293.11,110.609 292.5,111.5C 288.774,114.122 286.774,117.789 286.5,122.5C 285.326,123.514 284.66,124.847 284.5,126.5C 283.094,126.973 282.427,127.973 282.5,129.5C 281.11,130.899 280.11,132.566 279.5,134.5C 279.672,135.492 279.338,136.158 278.5,136.5C 277.094,136.973 276.427,137.973 276.5,139.5C 274.218,143.777 271.551,147.777 268.5,151.5C 267.094,151.973 266.427,152.973 266.5,154.5C 266.167,155.5 265.5,156.167 264.5,156.5C 263.094,156.973 262.427,157.973 262.5,159.5C 261.094,159.973 260.427,160.973 260.5,162.5C 259.299,164.909 257.633,166.909 255.5,168.5C 254.094,168.973 253.427,169.973 253.5,171.5C 253.167,172.5 252.5,173.167 251.5,173.5C 249.738,174.262 248.738,175.596 248.5,177.5C 248.5,178.167 248.167,178.5 247.5,178.5C 245.413,179.585 244.08,181.251 243.5,183.5C 242.674,185.264 241.341,186.598 239.5,187.5C 238.094,187.973 237.427,188.973 237.5,190.5C 237.5,191.167 237.167,191.5 236.5,191.5C 235.5,191.833 234.833,192.5 234.5,193.5C 234.144,195.19 233.144,196.19 231.5,196.5C 230.094,196.973 229.427,197.973 229.5,199.5C 227.833,200.5 226.5,201.833 225.5,203.5C 224.5,203.833 223.833,204.5 223.5,205.5C 221.738,206.262 220.738,207.596 220.5,209.5C 219.833,210.833 218.833,211.833 217.5,212.5C 216.5,212.833 215.833,213.5 215.5,214.5C 215.5,215.167 215.167,215.5 214.5,215.5C 212.738,216.262 211.738,217.596 211.5,219.5C 210.5,221.167 209.167,222.5 207.5,223.5C 205.852,224.777 204.018,225.777 202,226.5C 201.53,227.577 201.697,228.577 202.5,229.5C 201.557,232.109 199.89,234.109 197.5,235.5C 196.094,235.973 195.427,236.973 195.5,238.5C 195.5,239.167 195.167,239.5 194.5,239.5C 193.094,239.973 192.427,240.973 192.5,242.5C 191.974,244.23 190.974,245.564 189.5,246.5C 188.094,246.973 187.427,247.973 187.5,249.5C 187.672,250.492 187.338,251.158 186.5,251.5C 185.026,252.436 184.026,253.77 183.5,255.5C 182.326,256.514 181.66,257.847 181.5,259.5C 180.326,260.514 179.66,261.847 179.5,263.5C 179.34,265.153 178.674,266.486 177.5,267.5C 176.326,268.514 175.66,269.847 175.5,271.5C 172.654,276.376 170.987,281.709 170.5,287.5C 168.627,291.515 167.627,295.849 167.5,300.5C 166.167,312.167 166.167,323.833 167.5,335.5C 167.5,337.167 167.5,338.833 167.5,340.5C 167.43,344.425 168.097,348.091 169.5,351.5C 169.5,351.833 169.5,352.167 169.5,352.5C 169.645,358.444 171.312,363.778 174.5,368.5C 175.234,369.708 175.567,371.041 175.5,372.5C 174.412,377.249 176.079,380.249 180.5,381.5C 180.738,383.404 181.738,384.738 183.5,385.5C 184.316,388.107 185.983,390.107 188.5,391.5C 189.167,391.833 189.833,392.167 190.5,392.5C 190.525,395.179 191.858,396.512 194.5,396.5C 195.436,397.974 196.77,398.974 198.5,399.5C 198.833,399.5 199.167,399.5 199.5,399.5C 199.973,400.906 200.973,401.573 202.5,401.5C 204.819,401.992 206.819,402.992 208.5,404.5C 209.78,405.931 211.447,406.598 213.5,406.5C 214.609,406.557 215.609,406.89 216.5,407.5C 219.171,409.118 222.171,409.785 225.5,409.5C 226.833,410.5 226.833,411.5 225.5,412.5C 223.973,412.427 222.973,413.094 222.5,414.5C 221.486,415.674 220.153,416.34 218.5,416.5C 216.973,416.427 215.973,417.094 215.5,418.5C 212.485,420.674 209.151,422.341 205.5,423.5C 204.167,423.833 202.833,424.167 201.5,424.5C 198.528,423.319 196.528,424.319 195.5,427.5C 191.341,428.664 187.341,429.997 183.5,431.5C 182.791,432.404 181.791,432.737 180.5,432.5C 176.922,432.549 173.589,433.215 170.5,434.5C 158.815,434.635 147.148,434.302 135.5,433.5C 133.485,432.076 131.152,431.41 128.5,431.5C 122.975,430.662 117.975,428.662 113.5,425.5C 113.167,424.5 112.5,423.833 111.5,423.5C 111.167,423.5 110.833,423.5 110.5,423.5C 109.738,421.738 108.404,420.738 106.5,420.5C 101.895,417.564 97.8947,413.898 94.5,409.5C 94.5858,408.504 94.2524,407.671 93.5,407C 96.0842,405.006 95.9175,404.506 93,405.5C 91.9231,404.571 90.7564,403.904 89.5,403.5C 89.4456,401.368 88.4456,400.035 86.5,399.5C 85.6618,399.158 85.3284,398.492 85.5,397.5C 85.573,395.973 84.9063,394.973 83.5,394.5C 83.3404,392.847 82.6737,391.514 81.5,390.5C 80.3263,389.486 79.6596,388.153 79.5,386.5C 79.3404,384.847 78.6737,383.514 77.5,382.5C 75.3183,374.769 73.3183,367.102 71.5,359.5C 70.24,351.496 70.24,343.496 71.5,335.5C 73.0538,331.433 73.7204,327.1 73.5,322.5C 75.9408,317.506 77.6074,312.172 78.5,306.5C 81.4688,304.38 82.8021,301.38 82.5,297.5C 84.4077,296.514 85.4077,294.848 85.5,292.5C 86.6737,291.486 87.3404,290.153 87.5,288.5C 88.9063,288.027 89.573,287.027 89.5,285.5C 90.3403,283.147 91.6736,281.147 93.5,279.5C 94.9063,279.027 95.573,278.027 95.5,276.5C 96.7942,275.71 97.9609,274.71 99,273.5C 99.805,275.901 100.638,275.734 101.5,273C 100.833,272.667 100.167,272.333 99.5,272C 100.823,271.184 101.489,270.017 101.5,268.5C 103.587,267.415 104.92,265.749 105.5,263.5C 108.573,261.431 110.906,258.764 112.5,255.5C 115.113,252.71 117.613,249.71 120,246.5C 123.015,243.652 126.181,240.985 129.5,238.5C 133.436,236.234 136.769,233.234 139.5,229.5C 142.427,228.243 144.761,226.243 146.5,223.5C 146.833,222.5 147.5,221.833 148.5,221.5C 151.427,220.243 153.761,218.243 155.5,215.5C 158.089,214.581 160.089,212.914 161.5,210.5C 164.089,209.581 166.089,207.914 167.5,205.5C 170.427,204.243 172.761,202.243 174.5,199.5C 177.089,198.581 179.089,196.914 180.5,194.5C 183.089,193.581 185.089,191.914 186.5,189.5C 188.749,188.92 190.415,187.587 191.5,185.5C 193.749,184.92 195.415,183.587 196.5,181.5C 199.089,180.581 201.089,178.914 202.5,176.5C 203.167,176.5 203.5,176.167 203.5,175.5C 205.389,174.396 207.055,173.063 208.5,171.5C 209.262,169.738 210.596,168.738 212.5,168.5C 214.749,167.92 216.415,166.587 217.5,164.5C 217.5,163.833 217.833,163.5 218.5,163.5C 220.754,162.876 222.421,161.543 223.5,159.5C 225.23,158.974 226.564,157.974 227.5,156.5C 230.089,155.581 232.089,153.914 233.5,151.5C 237.765,147.362 242.431,143.695 247.5,140.5C 249.749,139.92 251.415,138.587 252.5,136.5C 254.027,136.573 255.027,135.906 255.5,134.5C 257.749,133.92 259.415,132.587 260.5,130.5C 261.262,128.738 262.596,127.738 264.5,127.5C 266.23,126.974 267.564,125.974 268.5,124.5C 268.5,123.833 268.833,123.5 269.5,123.5C 271.23,122.974 272.564,121.974 273.5,120.5C 279.19,115.482 285.19,110.815 291.5,106.5C 294.167,105.167 294.833,105.833 293.5,108.5 Z"/></g>
<g><path style="opacity:0.012" fill="#f6e2da" d="M 249.5,131.5 C 249.027,132.906 248.027,133.573 246.5,133.5C 246.973,132.094 247.973,131.427 249.5,131.5 Z"/></g>
<g><path style="opacity:1" fill="#f39c85" d="M 246.5,133.5 C 245.738,135.262 244.404,136.262 242.5,136.5C 243.598,135.603 243.598,134.77 242.5,134C 243.793,133.51 245.127,133.343 246.5,133.5 Z"/></g>
<g><path style="opacity:0.867" fill="#a3d5a5" d="M 260.5,130.5 C 259.415,132.587 257.749,133.92 255.5,134.5C 256.585,132.413 258.251,131.08 260.5,130.5 Z"/></g>
<g><path style="opacity:0.004" fill="#eef8ef" d="M 282.5,129.5 C 282.741,132.034 281.741,133.7 279.5,134.5C 280.11,132.566 281.11,130.899 282.5,129.5 Z"/></g>
<g><path style="opacity:0.576" fill="#bbdfc0" d="M 255.5,134.5 C 255.027,135.906 254.027,136.573 252.5,136.5C 252.973,135.094 253.973,134.427 255.5,134.5 Z"/></g>
<g><path style="opacity:1" fill="#f39e85" d="M 242.5,136.5 C 241.738,138.262 240.404,139.262 238.5,139.5C 238.678,136.255 240.011,135.255 242.5,136.5 Z"/></g>
<g><path style="opacity:0.004" fill="#ebf7ec" d="M 278.5,136.5 C 278.573,138.027 277.906,139.027 276.5,139.5C 276.427,137.973 277.094,136.973 278.5,136.5 Z"/></g>
<g><path style="opacity:0.651" fill="#bfe1c0" d="M 252.5,136.5 C 251.415,138.587 249.749,139.92 247.5,140.5C 248.585,138.413 250.251,137.08 252.5,136.5 Z"/></g>
<g><path style="opacity:1" fill="#f2a086" d="M 234.5,142.5 C 233.738,144.262 232.404,145.262 230.5,145.5C 230.678,142.255 232.011,141.255 234.5,142.5 Z"/></g>
<g><path style="opacity:0.012" fill="#f7e5de" d="M 237.5,140.5 C 237.167,141.167 236.833,141.833 236.5,142.5C 235.833,142.5 235.167,142.5 234.5,142.5C 234.973,141.094 235.973,140.427 237.5,140.5 Z"/></g>
<g><path style="opacity:0.008" fill="#fbfef5" d="M 236.5,142.5 C 237.833,143.167 237.833,143.167 236.5,142.5 Z"/></g>
<g><path style="opacity:1" fill="#f08364" d="M 230.5,145.5 C 228.2,147.984 225.533,149.984 222.5,151.5C 223.262,146.486 225.928,144.486 230.5,145.5 Z"/></g>
<g><path style="opacity:0.031" fill="#f3e4db" d="M 199.5,127.5 C 201.178,132.568 201.844,137.902 201.5,143.5C 201.199,152.688 201.199,161.688 201.5,170.5C 201.217,171.289 200.717,171.956 200,172.5C 200.756,157.499 200.589,142.499 199.5,127.5 Z"/></g>
<g><path style="opacity:1" fill="#f29b83" d="M 221.5,152.5 C 220.738,154.262 219.404,155.262 217.5,155.5C 218.598,154.603 218.598,153.77 217.5,153C 218.793,152.51 220.127,152.343 221.5,152.5 Z"/></g>
<g><path style="opacity:0.012" fill="#f1f9f1" d="M 268.5,151.5 C 268.573,153.027 267.906,154.027 266.5,154.5C 266.427,152.973 267.094,151.973 268.5,151.5 Z"/></g>
<g><path style="opacity:0.871" fill="#a4d7a7" d="M 233.5,151.5 C 232.089,153.914 230.089,155.581 227.5,156.5C 228.911,154.086 230.911,152.419 233.5,151.5 Z"/></g>
<g><path style="opacity:0.027" fill="#e2f2e4" d="M 227.5,156.5 C 226.564,157.974 225.23,158.974 223.5,159.5C 224.035,157.554 225.368,156.554 227.5,156.5 Z"/></g>
<g><path style="opacity:0.004" fill="#daeedc" d="M 264.5,156.5 C 264.573,158.027 263.906,159.027 262.5,159.5C 262.427,157.973 263.094,156.973 264.5,156.5 Z"/></g>
<g><path style="opacity:0.004" fill="#f7ded6" d="M 213.5,159.5 C 213.027,160.906 212.027,161.573 210.5,161.5C 210.973,160.094 211.973,159.427 213.5,159.5 Z"/></g>
<g><path style="opacity:0.396" fill="#cfead4" d="M 223.5,159.5 C 222.421,161.543 220.754,162.876 218.5,163.5C 219.539,161.469 221.205,160.136 223.5,159.5 Z"/></g>
<g><path style="opacity:0.008" fill="#eaf5eb" d="M 262.5,159.5 C 262.573,161.027 261.906,162.027 260.5,162.5C 260.427,160.973 261.094,159.973 262.5,159.5 Z"/></g>
<g><path style="opacity:0.004" fill="#fbfef4" d="M 211.5,163.5 C 212.833,164.167 212.833,164.167 211.5,163.5 Z"/></g>
<g><path style="opacity:1" fill="#e86747" d="M 201.5,143.5 C 202.328,149.987 202.828,156.654 203,163.5C 204.356,164.38 205.856,164.714 207.5,164.5C 205.833,166.833 203.833,168.833 201.5,170.5C 201.199,161.688 201.199,152.688 201.5,143.5 Z"/></g>
<g><path style="opacity:0.894" fill="#94ce99" d="M 217.5,164.5 C 216.415,166.587 214.749,167.92 212.5,168.5C 213.585,166.413 215.251,165.08 217.5,164.5 Z"/></g>
<g><path style="opacity:0.012" fill="#e4f3e6" d="M 255.5,168.5 C 255.573,170.027 254.906,171.027 253.5,171.5C 253.427,169.973 254.094,168.973 255.5,168.5 Z"/></g>
<g><path style="opacity:0.004" fill="#f3faf3" d="M 208.5,171.5 C 207.055,173.063 205.389,174.396 203.5,175.5C 203.5,176.167 203.167,176.5 202.5,176.5C 202.167,176.5 201.833,176.5 201.5,176.5C 201.5,175.5 201.5,174.5 201.5,173.5C 203.942,173.881 204.609,173.214 203.5,171.5C 204.242,170.713 205.075,170.047 206,169.5C 206.417,170.756 207.25,171.423 208.5,171.5 Z"/></g>
<g><path style="opacity:0.004" fill="#e4f3e4" d="M 251.5,173.5 C 251.262,175.404 250.262,176.738 248.5,177.5C 248.738,175.596 249.738,174.262 251.5,173.5 Z"/></g>
<g><path style="opacity:0.796" fill="#96ce9b" d="M 201.5,176.5 C 201.833,176.5 202.167,176.5 202.5,176.5C 201.089,178.914 199.089,180.581 196.5,181.5C 197.833,179.5 199.5,177.833 201.5,176.5 Z"/></g>
<g><path style="opacity:0.008" fill="#e7f4e8" d="M 247.5,178.5 C 246.92,180.749 245.587,182.415 243.5,183.5C 244.08,181.251 245.413,179.585 247.5,178.5 Z"/></g>
<g><path style="opacity:0.89" fill="#8fca95" d="M 196.5,181.5 C 195.415,183.587 193.749,184.92 191.5,185.5C 192.585,183.413 194.251,182.08 196.5,181.5 Z"/></g>
<g><path style="opacity:0.867" fill="#98d09d" d="M 191.5,185.5 C 190.415,187.587 188.749,188.92 186.5,189.5C 187.585,187.413 189.251,186.08 191.5,185.5 Z"/></g>
<g><path style="opacity:0.012" fill="#daefda" d="M 239.5,187.5 C 239.573,189.027 238.906,190.027 237.5,190.5C 237.427,188.973 238.094,187.973 239.5,187.5 Z"/></g>
<g><path style="opacity:0.776" fill="#9ed4a2" d="M 186.5,189.5 C 185.089,191.914 183.089,193.581 180.5,194.5C 181.911,192.086 183.911,190.419 186.5,189.5 Z"/></g>
<g><path style="opacity:0.008" fill="#f3fbf4" d="M 236.5,191.5 C 236.5,192.833 235.833,193.5 234.5,193.5C 234.833,192.5 235.5,191.833 236.5,191.5 Z"/></g>
<g><path style="opacity:0.824" fill="#9cd29f" d="M 180.5,194.5 C 179.089,196.914 177.089,198.581 174.5,199.5C 175.911,197.086 177.911,195.419 180.5,194.5 Z"/></g>
<g><path style="opacity:0.012" fill="#dbeedb" d="M 231.5,196.5 C 231.573,198.027 230.906,199.027 229.5,199.5C 229.427,197.973 230.094,196.973 231.5,196.5 Z"/></g>
<g><path style="opacity:0.004" fill="#f8fdf7" d="M 229.5,199.5 C 229.167,201.833 227.833,203.167 225.5,203.5C 226.5,201.833 227.833,200.5 229.5,199.5 Z"/></g>
<g><path style="opacity:0.784" fill="#99cf9c" d="M 174.5,199.5 C 172.761,202.243 170.427,204.243 167.5,205.5C 169.239,202.757 171.573,200.757 174.5,199.5 Z"/></g>
<g><path style="opacity:0.012" fill="#e8f5e9" d="M 225.5,203.5 C 225.5,204.833 224.833,205.5 223.5,205.5C 223.833,204.5 224.5,203.833 225.5,203.5 Z"/></g>
<g><path style="opacity:0.851" fill="#94cd97" d="M 167.5,205.5 C 166.089,207.914 164.089,209.581 161.5,210.5C 162.911,208.086 164.911,206.419 167.5,205.5 Z"/></g>
<g><path style="opacity:0.016" fill="#e3f3e4" d="M 223.5,205.5 C 223.262,207.404 222.262,208.738 220.5,209.5C 220.738,207.596 221.738,206.262 223.5,205.5 Z"/></g>
<g><path style="opacity:0.78" fill="#9fd2a4" d="M 161.5,210.5 C 160.089,212.914 158.089,214.581 155.5,215.5C 156.911,213.086 158.911,211.419 161.5,210.5 Z"/></g>
<g><path style="opacity:0.004" fill="#eff8ef" d="M 217.5,212.5 C 217.5,213.833 216.833,214.5 215.5,214.5C 215.833,213.5 216.5,212.833 217.5,212.5 Z"/></g>
<g><path style="opacity:0.655" fill="#addaaf" d="M 155.5,215.5 C 153.761,218.243 151.427,220.243 148.5,221.5C 150.239,218.757 152.573,216.757 155.5,215.5 Z"/></g>
<g><path style="opacity:0.012" fill="#e2f2e5" d="M 214.5,215.5 C 214.262,217.404 213.262,218.738 211.5,219.5C 211.738,217.596 212.738,216.262 214.5,215.5 Z"/></g>
<g><path style="opacity:1" fill="#96cf97" d="M 207.5,223.5 C 206.581,226.089 204.914,228.089 202.5,229.5C 201.697,228.577 201.53,227.577 202,226.5C 204.018,225.777 205.852,224.777 207.5,223.5 Z"/></g>
<g><path style="opacity:0.741" fill="#9dd2a3" d="M 146.5,223.5 C 144.761,226.243 142.427,228.243 139.5,229.5C 141.239,226.757 143.573,224.757 146.5,223.5 Z"/></g>
<g><path style="opacity:0.004" fill="#ddefdd" d="M 197.5,235.5 C 197.573,237.027 196.906,238.027 195.5,238.5C 195.427,236.973 196.094,235.973 197.5,235.5 Z"/></g>
<g><path style="opacity:1" fill="#f6ad3b" d="M 343.5,237.5 C 343.204,239.403 342.537,241.07 341.5,242.5C 340.069,243.78 339.402,245.447 339.5,247.5C 339.737,248.791 339.404,249.791 338.5,250.5C 336.935,252.509 335.935,254.843 335.5,257.5C 334.63,262.223 332.964,266.556 330.5,270.5C 326.484,271.533 325.484,273.866 327.5,277.5C 326.559,280.125 325.393,280.125 324,277.5C 323.982,279.797 324.149,282.131 324.5,284.5C 324.598,286.553 323.931,288.22 322.5,289.5C 321.326,290.514 320.66,291.847 320.5,293.5C 319.925,296.912 318.592,299.912 316.5,302.5C 315.326,303.514 314.66,304.847 314.5,306.5C 314.5,306.833 314.5,307.167 314.5,307.5C 313.778,307.082 313.278,306.416 313,305.5C 312.505,307.473 312.338,309.473 312.5,311.5C 310.373,312.398 309.206,314.064 309,316.5C 308.667,316.167 308.333,315.833 308,315.5C 307.51,316.793 307.343,318.127 307.5,319.5C 306.325,319.281 305.325,319.614 304.5,320.5C 305.309,322.071 305.643,323.738 305.5,325.5C 304.094,325.973 303.427,326.973 303.5,328.5C 303.672,329.492 303.338,330.158 302.5,330.5C 301.5,330.5 300.5,330.5 299.5,330.5C 299.552,332.903 299.219,335.236 298.5,337.5C 295.134,338.383 293.467,341.05 293.5,345.5C 291.567,345.729 289.9,346.562 288.5,348C 289.38,349.356 289.714,350.856 289.5,352.5C 288.85,352.196 288.183,351.863 287.5,351.5C 286.304,351.846 286.304,352.346 287.5,353C 286.234,353.309 285.067,353.809 284,354.5C 283.605,357.207 283.105,359.873 282.5,362.5C 282.5,363.167 282.167,363.5 281.5,363.5C 280.094,363.973 279.427,364.973 279.5,366.5C 279.5,367.167 279.167,367.5 278.5,367.5C 277.094,367.973 276.427,368.973 276.5,370.5C 272.939,374.973 268.939,378.973 264.5,382.5C 261.736,384.14 258.069,385.307 253.5,386C 256.19,386.335 256.857,387.501 255.5,389.5C 253.5,389.5 251.5,389.5 249.5,389.5C 249.567,390.959 249.234,392.292 248.5,393.5C 245.215,393.928 242.215,394.928 239.5,396.5C 232.5,396.5 225.5,396.5 218.5,396.5C 215.458,396.267 212.792,395.267 210.5,393.5C 210.027,392.094 209.027,391.427 207.5,391.5C 206.766,390.292 206.433,388.959 206.5,387.5C 204.097,387.552 201.764,387.219 199.5,386.5C 198.5,386.167 197.833,385.5 197.5,384.5C 195.833,382.167 193.833,380.167 191.5,378.5C 190.5,378.167 189.833,377.5 189.5,376.5C 189.573,374.973 188.906,373.973 187.5,373.5C 186.094,373.027 185.427,372.027 185.5,370.5C 185.759,368.011 184.759,366.344 182.5,365.5C 181.662,365.158 181.328,364.492 181.5,363.5C 181.33,362.178 181.663,361.011 182.5,360C 181.473,359.487 180.473,358.987 179.5,358.5C 178.662,358.158 178.328,357.492 178.5,356.5C 178.286,354.856 178.62,353.356 179.5,352C 177.714,350.804 176.381,349.304 175.5,347.5C 175.5,347.167 175.5,346.833 175.5,346.5C 175.5,345.5 175.5,344.5 175.5,343.5C 180.933,344.802 186.266,344.802 191.5,343.5C 197.184,343.739 202.518,342.739 207.5,340.5C 211.081,340.862 214.081,339.862 216.5,337.5C 219.393,337.969 221.393,336.969 222.5,334.5C 224.027,334.573 225.027,333.906 225.5,332.5C 227.404,332.262 228.738,331.262 229.5,329.5C 230.833,327.5 232.5,325.833 234.5,324.5C 236.262,323.738 237.262,322.404 237.5,320.5C 239.262,319.738 240.262,318.404 240.5,316.5C 241.906,316.027 242.573,315.027 242.5,313.5C 244.026,312.895 245.026,311.729 245.5,310C 246.448,309.517 247.448,309.351 248.5,309.5C 248.547,306.031 249.213,302.698 250.5,299.5C 251.642,295.883 253.308,292.55 255.5,289.5C 256.906,289.027 257.573,288.027 257.5,286.5C 257.5,286.167 257.5,285.833 257.5,285.5C 259.011,284.498 260.678,283.831 262.5,283.5C 263.052,281.669 263.052,280.003 262.5,278.5C 263.174,275.826 264.841,274.159 267.5,273.5C 266.515,271.902 266.349,270.235 267,268.5C 267.881,266.726 269.047,266.06 270.5,266.5C 269.652,264.591 269.318,262.591 269.5,260.5C 269.402,258.447 270.069,256.78 271.5,255.5C 275.151,254.341 278.485,252.674 281.5,250.5C 283.553,250.598 285.22,249.931 286.5,248.5C 289.636,248.397 292.302,247.397 294.5,245.5C 297.01,245.946 299.01,245.28 300.5,243.5C 314.782,240.013 329.116,236.68 343.5,233.5C 343.5,234.833 343.5,236.167 343.5,237.5 Z"/></g>
<g><path style="opacity:0.851" fill="#a4d6a8" d="M 139.5,229.5 C 136.769,233.234 133.436,236.234 129.5,238.5C 132.231,234.766 135.564,231.766 139.5,229.5 Z"/></g>
<g><path style="opacity:0.024" fill="#dff1e1" d="M 194.5,239.5 C 194.573,241.027 193.906,242.027 192.5,242.5C 192.427,240.973 193.094,239.973 194.5,239.5 Z"/></g>
<g><path style="opacity:0.627" fill="#f8e3ba" d="M 343.5,237.5 C 343.5,236.167 343.5,234.833 343.5,233.5C 329.116,236.68 314.782,240.013 300.5,243.5C 314.685,238.69 329.185,234.69 344,231.5C 345.493,233.563 345.326,235.563 343.5,237.5 Z"/></g>
<g><path style="opacity:0.902" fill="#fbdaa8" d="M 300.5,243.5 C 299.01,245.28 297.01,245.946 294.5,245.5C 296.214,244.262 298.214,243.595 300.5,243.5 Z"/></g>
<g><path style="opacity:0.243" fill="#f9ecce" d="M 341.5,242.5 C 341.598,244.553 340.931,246.22 339.5,247.5C 339.402,245.447 340.069,243.78 341.5,242.5 Z"/></g>
<g><path style="opacity:0.004" fill="#e0f1e3" d="M 189.5,246.5 C 189.573,248.027 188.906,249.027 187.5,249.5C 187.427,247.973 188.094,246.973 189.5,246.5 Z"/></g>
<g><path style="opacity:0.125" fill="#f9eac9" d="M 294.5,245.5 C 292.302,247.397 289.636,248.397 286.5,248.5C 288.792,246.733 291.458,245.733 294.5,245.5 Z"/></g>
<g><path style="opacity:0.075" fill="#faf2db" d="M 286.5,248.5 C 285.22,249.931 283.553,250.598 281.5,250.5C 282.78,249.069 284.447,248.402 286.5,248.5 Z"/></g>
<g><path style="opacity:0.933" fill="#6c78ad" d="M 353.5,256.5 C 351.896,255.713 351.229,254.38 351.5,252.5C 350.167,252.5 348.833,252.5 347.5,252.5C 347.118,256.332 345.785,259.665 343.5,262.5C 344.903,256.96 346.903,251.627 349.5,246.5C 350.949,249.425 352.615,252.258 354.5,255C 353.944,255.383 353.611,255.883 353.5,256.5 Z"/></g>
<g><path style="opacity:0.11" fill="#f9efd5" d="M 281.5,250.5 C 278.485,252.674 275.151,254.341 271.5,255.5C 274.247,252.793 277.58,251.127 281.5,250.5 Z"/></g>
<g><path style="opacity:1" fill="#244291" d="M 353.5,256.5 C 354.11,257.391 354.443,258.391 354.5,259.5C 354.263,260.791 354.596,261.791 355.5,262.5C 357.762,267.285 359.428,272.285 360.5,277.5C 360.235,281.653 361.569,284.987 364.5,287.5C 364.5,287.833 364.5,288.167 364.5,288.5C 364.235,292.653 365.569,295.987 368.5,298.5C 368.5,298.833 368.5,299.167 368.5,299.5C 368.387,302.049 369.054,304.382 370.5,306.5C 370.167,307.167 369.833,307.833 369.5,308.5C 370.167,308.833 370.833,309.167 371.5,309.5C 371.277,310.967 370.944,312.467 370.5,314C 373.172,315.201 375.172,317.035 376.5,319.5C 376.568,325.389 378.568,330.389 382.5,334.5C 383.537,335.93 384.204,337.597 384.5,339.5C 384.66,341.153 385.326,342.486 386.5,343.5C 386.5,343.833 386.5,344.167 386.5,344.5C 386.198,348.38 387.531,351.38 390.5,353.5C 391.537,354.93 392.204,356.597 392.5,358.5C 392.087,361.32 393.087,363.32 395.5,364.5C 396.404,365.209 396.737,366.209 396.5,367.5C 396.537,370.953 397.871,373.619 400.5,375.5C 401.167,376.5 401.833,377.5 402.5,378.5C 404.5,383.167 406.5,387.833 408.5,392.5C 408.328,393.492 408.662,394.158 409.5,394.5C 410.338,394.842 410.672,395.508 410.5,396.5C 410.328,397.492 410.662,398.158 411.5,398.5C 411.328,399.492 411.662,400.158 412.5,400.5C 412.328,401.492 412.662,402.158 413.5,402.5C 413.087,405.32 414.087,407.32 416.5,408.5C 416.833,408.5 417.167,408.5 417.5,408.5C 417.328,409.492 417.662,410.158 418.5,410.5C 418.5,411.167 418.5,411.833 418.5,412.5C 418.427,414.027 419.094,415.027 420.5,415.5C 420.5,415.833 420.5,416.167 420.5,416.5C 420.574,419.659 421.907,421.992 424.5,423.5C 425.674,424.514 426.34,425.847 426.5,427.5C 389.848,429.494 352.848,430.16 315.5,429.5C 313.081,424.853 311.414,419.853 310.5,414.5C 310.421,413.07 310.754,411.736 311.5,410.5C 310.813,408.402 309.48,406.402 307.5,404.5C 307.673,401.017 306.673,398.017 304.5,395.5C 301.08,387.514 298.413,379.181 296.5,370.5C 297.776,368.413 299.276,366.413 301,364.5C 301.309,363.234 301.809,362.067 302.5,361C 301.366,359.984 301.699,359.317 303.5,359C 302.748,358.329 302.414,357.496 302.5,356.5C 303.397,355.402 304.23,355.402 305,356.5C 304.923,355.262 305.089,354.262 305.5,353.5C 306.086,353.709 306.586,354.043 307,354.5C 307.108,352.517 306.941,350.517 306.5,348.5C 306.989,347.005 307.655,345.671 308.5,344.5C 309.825,343.047 310.658,343.381 311,345.5C 311.333,343.5 311.667,341.5 312,339.5C 312.654,340.696 313.154,340.696 313.5,339.5C 312.873,338.583 312.539,337.583 312.5,336.5C 314.93,330.643 317.597,324.977 320.5,319.5C 322.821,317.91 323.821,315.577 323.5,312.5C 326.321,304.203 329.655,296.203 333.5,288.5C 334.966,287.653 335.8,286.32 336,284.5C 336.667,285.833 337.333,285.833 338,284.5C 338.333,285.167 338.667,285.833 339,286.5C 340.361,284.972 341.528,283.305 342.5,281.5C 341.833,280.833 341.167,280.167 340.5,279.5C 341.428,278.232 341.595,276.899 341,275.5C 340.444,277.595 339.944,277.762 339.5,276C 341.111,273.79 341.778,271.29 341.5,268.5C 341.5,268.167 341.5,267.833 341.5,267.5C 343.213,266.365 343.88,264.698 343.5,262.5C 345.785,259.665 347.118,256.332 347.5,252.5C 348.833,252.5 350.167,252.5 351.5,252.5C 351.229,254.38 351.896,255.713 353.5,256.5 Z"/></g>
<g><path style="opacity:0.012" fill="#f5faf4" d="M 186.5,251.5 C 186.446,253.632 185.446,254.965 183.5,255.5C 184.026,253.77 185.026,252.436 186.5,251.5 Z"/></g>
<g><path style="opacity:0.106" fill="#f9f1d9" d="M 338.5,250.5 C 338.448,253.346 337.448,255.68 335.5,257.5C 335.935,254.843 336.935,252.509 338.5,250.5 Z"/></g>
<g><path style="opacity:0.647" fill="#bbdfc0" d="M 112.5,255.5 C 110.906,258.764 108.573,261.431 105.5,263.5C 107.094,260.236 109.427,257.569 112.5,255.5 Z"/></g>
<g><path style="opacity:0.016" fill="#ebf5ea" d="M 183.5,255.5 C 183.771,257.38 183.104,258.713 181.5,259.5C 181.66,257.847 182.326,256.514 183.5,255.5 Z"/></g>
<g><path style="opacity:0.006" fill="#f3faf5" d="M 181.5,259.5 C 181.771,261.38 181.104,262.713 179.5,263.5C 179.66,261.847 180.326,260.514 181.5,259.5 Z"/></g>
<g><path style="opacity:0.098" fill="#e0e6ea" d="M 354.5,259.5 C 356.481,260.105 356.815,261.105 355.5,262.5C 354.596,261.791 354.263,260.791 354.5,259.5 Z"/></g>
<g><path style="opacity:0.914" fill="#8f96be" d="M 343.5,262.5 C 343.88,264.698 343.213,266.365 341.5,267.5C 341.796,265.597 342.463,263.93 343.5,262.5 Z"/></g>
<g><path style="opacity:0.314" fill="#c0e3c2" d="M 105.5,263.5 C 104.92,265.749 103.587,267.415 101.5,268.5C 102.08,266.251 103.413,264.585 105.5,263.5 Z"/></g>
<g><path style="opacity:0.01" fill="#ecf8ee" d="M 177.5,267.5 C 177.771,269.38 177.104,270.713 175.5,271.5C 175.66,269.847 176.326,268.514 177.5,267.5 Z"/></g>
<g><path style="opacity:1" fill="#faca82" d="M 330.5,270.5 C 330.293,273.241 329.293,275.574 327.5,277.5C 325.484,273.866 326.484,271.533 330.5,270.5 Z"/></g>
<g><path style="opacity:1" fill="#7bc27e" d="M 101.5,268.5 C 101.489,270.017 100.823,271.184 99.5,272C 100.167,272.333 100.833,272.667 101.5,273C 100.638,275.734 99.805,275.901 99,273.5C 97.9609,274.71 96.7942,275.71 95.5,276.5C 97.016,273.467 99.016,270.8 101.5,268.5 Z"/></g>
<g><path style="opacity:1" fill="#f7c06a" d="M 269.5,260.5 C 269.318,262.591 269.652,264.591 270.5,266.5C 269.047,266.06 267.881,266.726 267,268.5C 266.349,270.235 266.515,271.902 267.5,273.5C 264.841,274.159 263.174,275.826 262.5,278.5C 263.052,280.003 263.052,281.669 262.5,283.5C 260.678,283.831 259.011,284.498 257.5,285.5C 261.263,276.976 265.263,268.642 269.5,260.5 Z"/></g>
<g><path style="opacity:0.004" fill="#e4f2e4" d="M 175.5,271.5 C 174.21,277.033 172.543,282.366 170.5,287.5C 170.987,281.709 172.654,276.376 175.5,271.5 Z"/></g>
<g><path style="opacity:1" fill="#fcc87e" d="M 327.5,277.5 C 327.293,280.241 326.293,282.574 324.5,284.5C 324.149,282.131 323.982,279.797 324,277.5C 325.393,280.125 326.559,280.125 327.5,277.5 Z"/></g>
<g><path style="opacity:0.463" fill="#b3dab5" d="M 95.5,276.5 C 95.573,278.027 94.9063,279.027 93.5,279.5C 93.427,277.973 94.0937,276.973 95.5,276.5 Z"/></g>
<g><path style="opacity:1" fill="#41559a" d="M 341.5,268.5 C 341.778,271.29 341.111,273.79 339.5,276C 339.944,277.762 340.444,277.595 341,275.5C 341.595,276.899 341.428,278.232 340.5,279.5C 341.167,280.167 341.833,280.833 342.5,281.5C 341.528,283.305 340.361,284.972 339,286.5C 338.667,285.833 338.333,285.167 338,284.5C 337.333,285.833 336.667,285.833 336,284.5C 335.8,286.32 334.966,287.653 333.5,288.5C 335.654,281.54 338.321,274.874 341.5,268.5 Z"/></g>
<g><path style="opacity:0.992" fill="#6976ac" d="M 360.5,277.5 C 362.4,280.518 363.733,283.851 364.5,287.5C 361.569,284.987 360.235,281.653 360.5,277.5 Z"/></g>
<g><path style="opacity:0.275" fill="#c8e7c9" d="M 89.5,285.5 C 89.573,287.027 88.9063,288.027 87.5,288.5C 87.427,286.973 88.0937,285.973 89.5,285.5 Z"/></g>
<g><path style="opacity:0.004" fill="#fdfef7" d="M 365.5,287.5 C 366.833,288.167 366.833,288.167 365.5,287.5 Z"/></g>
<g><path style="opacity:0.133" fill="#faeed4" d="M 257.5,286.5 C 257.573,288.027 256.906,289.027 255.5,289.5C 255.427,287.973 256.094,286.973 257.5,286.5 Z"/></g>
<g><path style="opacity:0.071" fill="#d6eddc" d="M 87.5,288.5 C 87.3404,290.153 86.6737,291.486 85.5,292.5C 85.2291,290.62 85.8958,289.287 87.5,288.5 Z"/></g>
<g><path style="opacity:0.075" fill="#faf2d9" d="M 322.5,289.5 C 322.771,291.38 322.104,292.713 320.5,293.5C 320.66,291.847 321.326,290.514 322.5,289.5 Z"/></g>
<g><path style="opacity:0.031" fill="#e3f2e4" d="M 170.5,287.5 C 170.515,291.56 170.015,295.56 169,299.5C 168.617,300.056 168.117,300.389 167.5,300.5C 167.627,295.849 168.627,291.515 170.5,287.5 Z"/></g>
<g><path style="opacity:0.933" fill="#a4d4a9" d="M 85.5,292.5 C 85.4077,294.848 84.4077,296.514 82.5,297.5C 82.7497,295.326 83.7497,293.659 85.5,292.5 Z"/></g>
<g><path style="opacity:0.984" fill="#6674aa" d="M 364.5,288.5 C 364.833,288.5 365.167,288.5 365.5,288.5C 366.5,291.833 367.5,295.167 368.5,298.5C 365.569,295.987 364.235,292.653 364.5,288.5 Z"/></g>
<g><path style="opacity:1" fill="#89c98d" d="M 82.5,297.5 C 82.8021,301.38 81.4688,304.38 78.5,306.5C 79.0749,303.088 80.4082,300.088 82.5,297.5 Z"/></g>
<g><path style="opacity:1" fill="#fcd091" d="M 314.5,307.5 C 314.34,309.153 313.674,310.486 312.5,311.5C 312.338,309.473 312.505,307.473 313,305.5C 313.278,306.416 313.778,307.082 314.5,307.5 Z"/></g>
<g><path style="opacity:0.094" fill="#faeed4" d="M 316.5,302.5 C 316.771,304.38 316.104,305.713 314.5,306.5C 314.66,304.847 315.326,303.514 316.5,302.5 Z"/></g>
<g><path style="opacity:1" fill="#f9c577" d="M 250.5,299.5 C 249.213,302.698 248.547,306.031 248.5,309.5C 247.448,309.351 246.448,309.517 245.5,310C 245.026,311.729 244.026,312.895 242.5,313.5C 244.664,308.5 247.331,303.833 250.5,299.5 Z"/></g>
<g><path style="opacity:0.008" fill="#eff2f4" d="M 372.5,309.5 C 374.698,309.409 375.031,310.075 373.5,311.5C 372.662,311.158 372.328,310.492 372.5,309.5 Z"/></g>
<g><path style="opacity:0.987" fill="#6572a9" d="M 368.5,299.5 C 370.4,302.518 371.733,305.851 372.5,309.5C 372.328,310.492 372.662,311.158 373.5,311.5C 374.871,313.936 375.871,316.603 376.5,319.5C 375.172,317.035 373.172,315.201 370.5,314C 370.944,312.467 371.277,310.967 371.5,309.5C 370.833,309.167 370.167,308.833 369.5,308.5C 369.833,307.833 370.167,307.167 370.5,306.5C 369.054,304.382 368.387,302.049 368.5,299.5 Z"/></g>
<g><path style="opacity:0.659" fill="#d0ead2" d="M 78.5,306.5 C 77.6074,312.172 75.9408,317.506 73.5,322.5C 74.2573,316.781 75.9239,311.448 78.5,306.5 Z"/></g>
<g><path style="opacity:0.329" fill="#f9e5c0" d="M 242.5,313.5 C 242.573,315.027 241.906,316.027 240.5,316.5C 240.427,314.973 241.094,313.973 242.5,313.5 Z"/></g>
<g><path style="opacity:1" fill="#facf8e" d="M 312.5,311.5 C 310.674,316.484 308.341,321.151 305.5,325.5C 305.643,323.738 305.309,322.071 304.5,320.5C 305.325,319.614 306.325,319.281 307.5,319.5C 307.343,318.127 307.51,316.793 308,315.5C 308.333,315.833 308.667,316.167 309,316.5C 309.206,314.064 310.373,312.398 312.5,311.5 Z"/></g>
<g><path style="opacity:0.998" fill="#7682b3" d="M 323.5,312.5 C 323.821,315.577 322.821,317.91 320.5,319.5C 320.707,316.759 321.707,314.426 323.5,312.5 Z"/></g>
<g><path style="opacity:0.29" fill="#f6ebcc" d="M 240.5,316.5 C 240.262,318.404 239.262,319.738 237.5,320.5C 237.738,318.596 238.738,317.262 240.5,316.5 Z"/></g>
<g><path style="opacity:0.361" fill="#faebcc" d="M 237.5,320.5 C 237.262,322.404 236.262,323.738 234.5,324.5C 234.738,322.596 235.738,321.262 237.5,320.5 Z"/></g>
<g><path style="opacity:0.027" fill="#eaf5ec" d="M 167.5,300.5 C 167.574,311.987 167.574,323.654 167.5,335.5C 166.167,323.833 166.167,312.167 167.5,300.5 Z"/></g>
<g><path style="opacity:0.004" fill="#fcf4e2" d="M 305.5,325.5 C 305.573,327.027 304.906,328.027 303.5,328.5C 303.427,326.973 304.094,325.973 305.5,325.5 Z"/></g>
<g><path style="opacity:0.941" fill="#7b86b5" d="M 376.5,319.5 C 378.871,324.265 380.871,329.265 382.5,334.5C 378.568,330.389 376.568,325.389 376.5,319.5 Z"/></g>
<g><path style="opacity:0.039" fill="#d1ead2" d="M 73.5,322.5 C 73.7204,327.1 73.0538,331.433 71.5,335.5C 71.2796,330.9 71.9462,326.567 73.5,322.5 Z"/></g>
<g><path style="opacity:0.325" fill="#faebce" d="M 229.5,329.5 C 228.738,331.262 227.404,332.262 225.5,332.5C 226.262,330.738 227.596,329.738 229.5,329.5 Z"/></g>
<g><path style="opacity:1" fill="#fbd396" d="M 302.5,330.5 C 301.921,333.331 300.588,335.664 298.5,337.5C 299.219,335.236 299.552,332.903 299.5,330.5C 300.5,330.5 301.5,330.5 302.5,330.5 Z"/></g>
<g><path style="opacity:0.455" fill="#f8ecc9" d="M 225.5,332.5 C 225.027,333.906 224.027,334.573 222.5,334.5C 222.973,333.094 223.973,332.427 225.5,332.5 Z"/></g>
<g><path style="opacity:0.957" fill="#f8cf8c" d="M 222.5,334.5 C 221.393,336.969 219.393,337.969 216.5,337.5C 218.181,335.992 220.181,334.992 222.5,334.5 Z"/></g>
<g><path style="opacity:0.855" fill="#f9dcac" d="M 216.5,337.5 C 214.081,339.862 211.081,340.862 207.5,340.5C 210.215,338.928 213.215,337.928 216.5,337.5 Z"/></g>
<g><path style="opacity:1" fill="#f9c779" d="M 298.5,337.5 C 296.251,343.005 293.251,348.005 289.5,352.5C 289.714,350.856 289.38,349.356 288.5,348C 289.9,346.562 291.567,345.729 293.5,345.5C 293.467,341.05 295.134,338.383 298.5,337.5 Z"/></g>
<g><path style="opacity:1" fill="#6a77ae" d="M 312.5,336.5 C 312.539,337.583 312.873,338.583 313.5,339.5C 313.154,340.696 312.654,340.696 312,339.5C 311.667,341.5 311.333,343.5 311,345.5C 310.658,343.381 309.825,343.047 308.5,344.5C 309.326,341.515 310.659,338.849 312.5,336.5 Z"/></g>
<g><path style="opacity:0.004" fill="#e6ecf1" d="M 384.5,339.5 C 386.104,340.287 386.771,341.62 386.5,343.5C 385.326,342.486 384.66,341.153 384.5,339.5 Z"/></g>
<g><path style="opacity:0.325" fill="#f7eccf" d="M 207.5,340.5 C 202.518,342.739 197.184,343.739 191.5,343.5C 196.617,342.011 201.951,341.011 207.5,340.5 Z"/></g>
<g><path style="opacity:0.502" fill="#f6e8c8" d="M 175.5,343.5 C 175.5,344.5 175.5,345.5 175.5,346.5C 173.443,344.957 173.443,343.957 175.5,343.5 Z"/></g>
<g><path style="opacity:0.62" fill="#f3c87b" d="M 175.5,343.5 C 180.584,343.369 185.918,343.369 191.5,343.5C 186.266,344.802 180.933,344.802 175.5,343.5 Z"/></g>
<g><path style="opacity:0.012" fill="#e9f5ea" d="M 167.5,340.5 C 169.257,341.292 170.591,342.625 171.5,344.5C 170.423,346.729 169.756,349.063 169.5,351.5C 168.097,348.091 167.43,344.425 167.5,340.5 Z"/></g>
<g><path style="opacity:0.988" fill="#fbd598" d="M 175.5,347.5 C 176.381,349.304 177.714,350.804 179.5,352C 178.62,353.356 178.286,354.856 178.5,356.5C 176.69,353.855 175.69,350.855 175.5,347.5 Z"/></g>
<g><path style="opacity:0.998" fill="#5968a3" d="M 306.5,348.5 C 306.941,350.517 307.108,352.517 307,354.5C 306.586,354.043 306.086,353.709 305.5,353.5C 305.089,354.262 304.923,355.262 305,356.5C 304.23,355.402 303.397,355.402 302.5,356.5C 303.326,353.515 304.659,350.849 306.5,348.5 Z"/></g>
<g><path style="opacity:0.957" fill="#6d79ae" d="M 386.5,344.5 C 387.309,345.469 388.309,346.302 389.5,347C 389.043,347.414 388.709,347.914 388.5,348.5C 389.456,350.075 390.123,351.742 390.5,353.5C 387.531,351.38 386.198,348.38 386.5,344.5 Z"/></g>
<g><path style="opacity:1" fill="#f9c16c" d="M 289.5,352.5 C 287.646,356.221 285.313,359.554 282.5,362.5C 283.105,359.873 283.605,357.207 284,354.5C 285.067,353.809 286.234,353.309 287.5,353C 286.304,352.346 286.304,351.846 287.5,351.5C 288.183,351.863 288.85,352.196 289.5,352.5 Z"/></g>
<g><path style="opacity:1" fill="#fad394" d="M 179.5,358.5 C 180.473,358.987 181.473,359.487 182.5,360C 181.663,361.011 181.33,362.178 181.5,363.5C 180.069,362.22 179.402,360.553 179.5,358.5 Z"/></g>
<g><path style="opacity:1" fill="#6572aa" d="M 302.5,356.5 C 302.414,357.496 302.748,358.329 303.5,359C 301.699,359.317 301.366,359.984 302.5,361C 301.809,362.067 301.309,363.234 301,364.5C 299.276,366.413 297.776,368.413 296.5,370.5C 295.427,369.749 295.26,368.749 296,367.5C 298.193,363.77 300.36,360.103 302.5,356.5 Z"/></g>
<g><path style="opacity:0.975" fill="#7884b3" d="M 392.5,358.5 C 394.008,360.181 395.008,362.181 395.5,364.5C 393.087,363.32 392.087,361.32 392.5,358.5 Z"/></g>
<g><path style="opacity:0.69" fill="#b9e0bc" d="M 169.5,352.5 C 171.537,357.616 173.203,362.949 174.5,368.5C 171.312,363.778 169.645,358.444 169.5,352.5 Z"/></g>
<g><path style="opacity:0.02" fill="#faeed5" d="M 281.5,363.5 C 281.573,365.027 280.906,366.027 279.5,366.5C 279.427,364.973 280.094,363.973 281.5,363.5 Z"/></g>
<g><path style="opacity:0.976" fill="#f9d8a3" d="M 182.5,365.5 C 184.759,366.344 185.759,368.011 185.5,370.5C 183.75,369.341 182.75,367.674 182.5,365.5 Z"/></g>
<g><path style="opacity:0.098" fill="#d9eedb" d="M 71.5,359.5 C 73.3183,367.102 75.3183,374.769 77.5,382.5C 73.8051,375.392 71.8051,367.726 71.5,359.5 Z"/></g>
<g><path style="opacity:0.008" fill="#fbf4e1" d="M 278.5,367.5 C 278.573,369.027 277.906,370.027 276.5,370.5C 276.427,368.973 277.094,367.973 278.5,367.5 Z"/></g>
<g><path style="opacity:1" fill="#8991bb" d="M 396.5,367.5 C 398.387,369.789 399.721,372.455 400.5,375.5C 397.871,373.619 396.537,370.953 396.5,367.5 Z"/></g>
<g><path style="opacity:0.016" fill="#faeed7" d="M 187.5,373.5 C 188.906,373.973 189.573,374.973 189.5,376.5C 188.094,376.027 187.427,375.027 187.5,373.5 Z"/></g>
<g><path style="opacity:1" fill="#80c583" d="M 175.5,372.5 C 177.924,375.008 179.59,378.008 180.5,381.5C 176.079,380.249 174.412,377.249 175.5,372.5 Z"/></g>
<g><path style="opacity:0.004" fill="#fafefb" d="M 402.5,377.5 C 403.833,378.167 403.833,378.167 402.5,377.5 Z"/></g>
<g><path style="opacity:0.008" fill="#faeed4" d="M 191.5,378.5 C 193.833,380.167 195.833,382.167 197.5,384.5C 194.5,383.5 192.5,381.5 191.5,378.5 Z"/></g>
<g><path style="opacity:0.024" fill="#e4f3e2" d="M 77.5,382.5 C 78.6737,383.514 79.3404,384.847 79.5,386.5C 77.8958,385.713 77.2291,384.38 77.5,382.5 Z"/></g>
<g><path style="opacity:0.502" fill="#b7e0bc" d="M 180.5,381.5 C 182.262,382.262 183.262,383.596 183.5,385.5C 181.738,384.738 180.738,383.404 180.5,381.5 Z"/></g>
<g><path style="opacity:0.988" fill="#fac97d" d="M 264.5,382.5 C 262.051,385.556 259.051,387.889 255.5,389.5C 256.857,387.501 256.19,386.335 253.5,386C 258.069,385.307 261.736,384.14 264.5,382.5 Z"/></g>
<g><path style="opacity:0.463" fill="#bbe1be" d="M 183.5,385.5 C 185.86,386.865 187.527,388.865 188.5,391.5C 185.983,390.107 184.316,388.107 183.5,385.5 Z"/></g>
<g><path style="opacity:1" fill="#f9c87b" d="M 199.5,386.5 C 201.764,387.219 204.097,387.552 206.5,387.5C 206.433,388.959 206.766,390.292 207.5,391.5C 204.296,390.617 201.629,388.95 199.5,386.5 Z"/></g>
<g><path style="opacity:1" fill="#fcd091" d="M 255.5,389.5 C 253.664,391.588 251.331,392.921 248.5,393.5C 249.234,392.292 249.567,390.959 249.5,389.5C 251.5,389.5 253.5,389.5 255.5,389.5 Z"/></g>
<g><path style="opacity:0.02" fill="#e6f4e7" d="M 81.5,390.5 C 82.6737,391.514 83.3404,392.847 83.5,394.5C 81.8958,393.713 81.2291,392.38 81.5,390.5 Z"/></g>
<g><path style="opacity:0.212" fill="#f8e9c9" d="M 207.5,391.5 C 209.027,391.427 210.027,392.094 210.5,393.5C 208.973,393.573 207.973,392.906 207.5,391.5 Z"/></g>
<g><path style="opacity:0.004" fill="#e1e8ed" d="M 408.5,392.5 C 410.698,392.409 411.031,393.075 409.5,394.5C 408.662,394.158 408.328,393.492 408.5,392.5 Z"/></g>
<g><path style="opacity:1" fill="#a6d6a8" d="M 190.5,392.5 C 192.5,393.167 193.833,394.5 194.5,396.5C 191.858,396.512 190.525,395.179 190.5,392.5 Z"/></g>
<g><path style="opacity:0.016" fill="#f9f5e4" d="M 248.5,393.5 C 245.916,395.472 242.916,396.472 239.5,396.5C 242.215,394.928 245.215,393.928 248.5,393.5 Z"/></g>
<g><path style="opacity:0.004" fill="#e8ecee" d="M 411.5,398.5 C 410.662,398.158 410.328,397.492 410.5,396.5C 412.677,395.496 413.011,396.162 411.5,398.5 Z"/></g>
<g><path style="opacity:0.047" fill="#e1f2e3" d="M 83.5,394.5 C 84.9063,394.973 85.573,395.973 85.5,397.5C 84.0937,397.027 83.427,396.027 83.5,394.5 Z"/></g>
<g><path style="opacity:0.012" fill="#eaf6ec" d="M 194.5,396.5 C 196.632,396.554 197.965,397.554 198.5,399.5C 196.77,398.974 195.436,397.974 194.5,396.5 Z"/></g>
<g><path style="opacity:0.055" fill="#fbedd0" d="M 218.5,396.5 C 225.5,396.5 232.5,396.5 239.5,396.5C 232.507,399.101 225.507,399.101 218.5,396.5 Z"/></g>
<g><path style="opacity:0.99" fill="#8993be" d="M 304.5,395.5 C 306.673,398.017 307.673,401.017 307.5,404.5C 305.69,401.855 304.69,398.855 304.5,395.5 Z"/></g>
<g><path style="opacity:0.004" fill="#e3e6ec" d="M 411.5,398.5 C 413.698,398.409 414.031,399.075 412.5,400.5C 411.662,400.158 411.328,399.492 411.5,398.5 Z"/></g>
<g><path style="opacity:0.835" fill="#b7ddb9" d="M 86.5,399.5 C 88.4456,400.035 89.4456,401.368 89.5,403.5C 88.0256,402.564 87.0256,401.23 86.5,399.5 Z"/></g>
<g><path style="opacity:0.02" fill="#ecf8ee" d="M 199.5,399.5 C 201.027,399.427 202.027,400.094 202.5,401.5C 200.973,401.573 199.973,400.906 199.5,399.5 Z"/></g>
<g><path style="opacity:0.004" fill="#e2e7ed" d="M 412.5,400.5 C 414.698,400.409 415.031,401.075 413.5,402.5C 412.662,402.158 412.328,401.492 412.5,400.5 Z"/></g>
<g><path style="opacity:1" fill="#7dc382" d="M 89.5,403.5 C 90.7564,403.904 91.9231,404.571 93,405.5C 95.9175,404.506 96.0842,405.006 93.5,407C 94.2524,407.671 94.5858,408.504 94.5,409.5C 92.1097,408.109 90.4431,406.109 89.5,403.5 Z"/></g>
<g><path style="opacity:0.992" fill="#6371a9" d="M 307.5,404.5 C 309.48,406.402 310.813,408.402 311.5,410.5C 310.754,411.736 310.421,413.07 310.5,414.5C 308.899,411.45 307.899,408.116 307.5,404.5 Z"/></g>
<g><path style="opacity:0.204" fill="#d5edd9" d="M 208.5,404.5 C 210.553,404.402 212.22,405.069 213.5,406.5C 211.447,406.598 209.78,405.931 208.5,404.5 Z"/></g>
<g><path style="opacity:0.98" fill="#7580b2" d="M 413.5,402.5 C 415.008,404.181 416.008,406.181 416.5,408.5C 414.087,407.32 413.087,405.32 413.5,402.5 Z"/></g>
<g><path style="opacity:0.004" fill="#fcfff5" d="M 417.5,407.5 C 418.833,408.167 418.833,408.167 417.5,407.5 Z"/></g>
<g><path style="opacity:0.02" fill="#e9f5ea" d="M 216.5,407.5 C 219.106,408.136 221.606,408.136 224,407.5C 224.717,408.044 225.217,408.711 225.5,409.5C 222.171,409.785 219.171,409.118 216.5,407.5 Z"/></g>
<g><path style="opacity:0.145" fill="#e1f2e3" d="M 225.5,409.5 C 228.962,409.807 228.962,410.807 225.5,412.5C 226.833,411.5 226.833,410.5 225.5,409.5 Z"/></g>
<g><path style="opacity:0.008" fill="#fafefc" d="M 418.5,409.5 C 419.833,410.167 419.833,410.167 418.5,409.5 Z"/></g>
<g><path style="opacity:0.004" fill="#f4fbf4" d="M 225.5,412.5 C 225.027,413.906 224.027,414.573 222.5,414.5C 222.973,413.094 223.973,412.427 225.5,412.5 Z"/></g>
<g><path style="opacity:0.157" fill="#c9d1e1" d="M 418.5,412.5 C 419.906,412.973 420.573,413.973 420.5,415.5C 419.094,415.027 418.427,414.027 418.5,412.5 Z"/></g>
<g><path style="opacity:0.016" fill="#e8f4ea" d="M 218.5,416.5 C 218.027,417.906 217.027,418.573 215.5,418.5C 215.973,417.094 216.973,416.427 218.5,416.5 Z"/></g>
<g><path style="opacity:0.988" fill="#838db7" d="M 420.5,416.5 C 422.588,418.336 423.921,420.669 424.5,423.5C 421.907,421.992 420.574,419.659 420.5,416.5 Z"/></g>
<g><path style="opacity:0.482" fill="#bbe2bf" d="M 106.5,420.5 C 108.404,420.738 109.738,421.738 110.5,423.5C 108.596,423.262 107.262,422.262 106.5,420.5 Z"/></g>
<g><path style="opacity:0.004" fill="#fcfefa" d="M 425.5,421.5 C 426.833,422.167 426.833,422.167 425.5,421.5 Z"/></g>
<g><path style="opacity:0.008" fill="#e7f4e5" d="M 111.5,423.5 C 112.5,423.833 113.167,424.5 113.5,425.5C 112.167,425.5 111.5,424.833 111.5,423.5 Z"/></g>
<g><path style="opacity:0.995" fill="#83c685" d="M 201.5,424.5 C 201.5,424.833 201.5,425.167 201.5,425.5C 200.22,426.931 198.553,427.598 196.5,427.5C 196.167,427.5 195.833,427.5 195.5,427.5C 196.528,424.319 198.528,423.319 201.5,424.5 Z"/></g>
<g><path style="opacity:0.006" fill="#eff7f1" d="M 205.5,423.5 C 204.713,425.104 203.38,425.771 201.5,425.5C 201.5,425.167 201.5,424.833 201.5,424.5C 202.833,424.167 204.167,423.833 205.5,423.5 Z"/></g>
<g><path style="opacity:0.241" fill="#c6d0da" d="M 426.5,427.5 C 427.643,427.908 428.643,428.575 429.5,429.5C 391.335,430.83 353.335,430.83 315.5,429.5C 352.848,430.16 389.848,429.494 426.5,427.5 Z"/></g>
<g><path style="opacity:0.027" fill="#e1f2e3" d="M 195.5,427.5 C 195.833,427.5 196.167,427.5 196.5,427.5C 192.693,430.207 188.36,431.54 183.5,431.5C 187.341,429.997 191.341,428.664 195.5,427.5 Z"/></g>
<g><path style="opacity:0.024" fill="#d5ebd6" d="M 128.5,431.5 C 131.152,431.41 133.485,432.076 135.5,433.5C 132.848,433.59 130.515,432.924 128.5,431.5 Z"/></g>
<g><path style="opacity:0.016" fill="#ebf6ea" d="M 180.5,432.5 C 177.493,434.175 174.16,434.841 170.5,434.5C 173.589,433.215 176.922,432.549 180.5,432.5 Z"/></g>
<g><path style="opacity:0.385" fill="#cbe6cf" d="M 135.5,433.5 C 147.148,434.302 158.815,434.635 170.5,434.5C 165.678,435.166 160.678,435.499 155.5,435.5C 148.589,435.724 141.922,435.058 135.5,433.5 Z"/></g>
</svg>
