<svg id="Слой_2" data-name="Слой 2" xmlns="http://www.w3.org/2000/svg" viewBox="0 0 354.4 370.9"><defs><style>.cls-1{fill:#ed1c24;}.cls-1,.cls-2,.cls-3,.cls-4{fill-rule:evenodd;}.cls-2{fill:#39b54a;}.cls-3{fill:#efa441;}.cls-4{fill:#4864a3;}</style></defs><title>logo1</title><path class="cls-1" d="M548.9,354s50,37.2,39,103.2c-.4,2.3,53-39,70.2-52.7C681.5,386,691.9,354,691.9,354Z" transform="translate(-456.5 -354)"/><path class="cls-2" d="M661.4,429.2a254.6,254.6,0,0,1-15.8,24c-18.5,24.7-62,83.3-75.8,103.3a96,96,0,0,0-17,49C547.9,691.7,614,699,614,699c-79,63-187.1,4-150-101,23-65,216-202.3,216-202.3Z" transform="translate(-456.5 -354)"/><path class="cls-3" d="M658.4,548.2l72-22-5,12.1c-33.8,81.9-42.9,103-62,124.9s-30.5,24.9-37,26c-21.1,3.6-38.4-8.8-40-10-10.6-7.9-15.6-18-18-23a68.1,68.1,0,0,1-6-20,77,77,0,0,0,15.4.1c1.4-.1,19-1.8,34.6-11.1,27.8-16.6,37.4-48.5,38.5-53.4Z" transform="translate(-456.5 -354)"/><path class="cls-4" d="M677.9,657.7h0a837,837,0,0,0,54.8-121.4l.7-2,77.5,182.9-111,2Z" transform="translate(-456.5 -354)"/></svg>